<svg width="512" height="512" xmlns="http://www.w3.org/2000/svg">

 <g>
  <title>background</title>
  <rect fill="none" id="canvas_background" height="402" width="582" y="-1" x="-1"/>
 </g>
 <g>
  <title>Layer 1</title>
  <path id="svg_3" fill="#022b2b" d="m436,255.996c0,-99.406 -80.59,-180 -180,-180c-99.414,0 -180,80.594 -180,180c0,99.418 80.586,180.004 180,180.004c99.41,0 180,-80.586 180,-180.004z"/>
  <path id="svg_6" fill="#528b6e" d="m400,255.996c0,-79.531 -64.473,-144 -144,-144c-79.531,0 -144,64.469 -144,144c0,79.535 64.469,144.004 144,144.004c79.527,0 144,-64.469 144,-144.004z"/>
  <path id="svg_7" fill="#022b2b" d="m364,255.996c0,-59.648 -48.359,-108 -108,-108c-59.648,0 -108,48.352 -108,108c0,59.645 48.352,108.004 108,108.004c59.641,0 108,-48.359 108,-108.004z"/>
  <path id="svg_8" fill="#ED4B2C" d="m292,255.996c0,-19.875 -16.121,-36 -36,-36c-19.883,0 -36,16.125 -36,36c0,19.887 16.117,36.004 36,36.004c19.879,0 36,-16.117 36,-36.004z"/>
  <path id="svg_9" fill="#528b6e" d="m256,183.996c-39.766,0 -72,32.234 -72,72c0,39.77 32.234,72.004 72,72.004c39.762,0 72,-32.234 72,-72.004c0,-39.766 -32.238,-72 -72,-72zm0,108.004c-19.883,0 -36,-16.117 -36,-36.004c0,-19.875 16.117,-36 36,-36c19.879,0 36,16.125 36,36c0,19.887 -16.121,36.004 -36,36.004z"/>
  <polygon id="svg_11" points="392.25,198.949 332.148,179.855 403.563,108.438 463.664,127.527   " fill="#FBA124"/>
  <polygon id="svg_12" points="313.055,119.754 332.148,179.855 403.563,108.438 384.469,48.332   " fill="#FFCB5B"/>
  <polygon id="svg_13" points="360.742,72.059 333.563,99.246 352.648,159.348 379.836,132.16   " opacity="0.5" fill="#FFFFFF"/>
  <polygon id="svg_14" points="412.758,178.441 439.938,151.254 379.836,132.16 352.648,159.348   " opacity="0.5" fill="#FFFFFF"/>
  <path stroke="null" id="svg_15" fill="#044646" d="m259.535574,262.375911c-2.731028,2.718454 -7.167525,2.718454 -9.902053,0l0,0c-2.734528,-2.725422 -2.727527,-7.138011 0,-9.856465l146.813075,-146.138037c2.734528,-2.721938 7.1649,-2.721938 9.905553,0l0,0c2.727527,2.721938 2.727527,7.134527 0,9.856465l-146.816575,146.138037z"/>
 </g>
</svg>